<svg width="36" height="36" viewBox="0 0 36 36" fill="none" xmlns="http://www.w3.org/2000/svg">
<rect width="36" height="36" rx="5" fill="#212529"/>
<path d="M18 15C16.3438 15 15 16.375 15 18C15 19.6562 16.3438 21 18 21C19.625 21 21 19.6562 21 18C21 16.375 19.625 15 18 15ZM25.6875 17.5312L22.7188 16.0625L23.7812 12.9062C23.9062 12.5 23.5 12.0938 23.0938 12.2188L19.9375 13.2812L18.4688 10.3125C18.2812 9.90625 17.6875 9.90625 17.5 10.3125L16.0312 13.2812L12.875 12.2188C12.4688 12.0938 12.0625 12.5 12.1875 12.9062L13.25 16.0625L10.2812 17.5312C9.875 17.7188 9.875 18.3125 10.2812 18.5L13.25 19.9688L12.1875 23.125C12.0625 23.5312 12.4688 23.9375 12.875 23.8125L16.0312 22.75L17.5 25.7188C17.6875 26.125 18.2812 26.125 18.4688 25.7188L19.9375 22.75L23.0938 23.8125C23.5 23.9375 23.9062 23.5312 23.7812 23.125L22.7188 19.9688L25.6875 18.5C26.0938 18.3125 26.0938 17.7188 25.6875 17.5312ZM20.8125 20.8438C19.25 22.4062 16.7188 22.4062 15.1562 20.8438C13.5938 19.2812 13.5938 16.75 15.1562 15.1875C16.7188 13.625 19.25 13.625 20.8125 15.1875C22.375 16.75 22.375 19.2812 20.8125 20.8438Z" fill="#868E96"/>
</svg>
